<svg width="32" height="32" viewBox="0 0 32 32" fill="none" xmlns="http://www.w3.org/2000/svg">
<path d="M29.4814 16.2441C29.4814 16.6667 29.306 17.0498 28.9551 17.3936C28.6113 17.7301 28.1458 18.0023 27.5586 18.21C26.9785 18.4105 26.3376 18.5107 25.6357 18.5107H21.2207C20.9199 18.5107 20.6908 18.543 20.5332 18.6074C20.3828 18.6719 20.2181 18.8044 20.0391 19.0049L12.7451 26.8896C12.5088 27.1475 12.2331 27.2764 11.918 27.2764H10.543C10.4069 27.2764 10.3031 27.2191 10.2314 27.1045C10.167 26.9971 10.1706 26.8682 10.2422 26.7178L14.002 18.5107L8.50195 17.8984L6.53613 21.4111C6.38574 21.6618 6.14225 21.7871 5.80566 21.7871H5.32227C5.17904 21.7871 5.06087 21.7441 4.96777 21.6582C4.88184 21.5723 4.83887 21.4577 4.83887 21.3145V11.1738C4.83887 11.0234 4.88184 10.9053 4.96777 10.8193C5.06087 10.7334 5.17904 10.6904 5.32227 10.6904H5.80566C6.14225 10.6904 6.38574 10.8193 6.53613 11.0771L8.50195 14.5898L14.002 13.9775L10.2422 5.75977C10.1706 5.60938 10.167 5.48047 10.2314 5.37305C10.3031 5.26562 10.4069 5.21191 10.543 5.21191H11.918C12.2331 5.21191 12.5088 5.34082 12.7451 5.59863L20.0391 13.4727C20.2181 13.6732 20.3828 13.8092 20.5332 13.8809C20.6908 13.9453 20.9199 13.9775 21.2207 13.9775H25.6357C26.3376 13.9775 26.9785 14.0814 27.5586 14.2891C28.1458 14.4896 28.6113 14.7617 28.9551 15.1055C29.306 15.4421 29.4814 15.8216 29.4814 16.2441Z" fill="#E33A8B"/>
</svg>
