<svg width="24" height="17" viewBox="0 0 24 17" fill="none" xmlns="http://www.w3.org/2000/svg">
<path d="M5.98755 10.6055C5.59497 10.7109 5.24048 10.7373 4.92407 10.6846C4.61353 10.6318 4.34985 10.4854 4.13306 10.2451L1.05688 6.78223C0.974854 6.69434 0.933838 6.5918 0.933838 6.47461C0.939697 6.35742 0.992432 6.25488 1.09204 6.16699L1.35571 5.9209C1.47876 5.80957 1.59888 5.74219 1.71606 5.71875C1.83911 5.68945 1.96802 5.69824 2.10278 5.74512L7.62231 7.70508L5.16138 7.62598L10.0217 5.95605L9.81079 7.02832L4.69556 1.5791C4.58423 1.46777 4.54321 1.34766 4.57251 1.21875C4.60181 1.08984 4.67798 1.00488 4.80103 0.963867L5.41626 0.779297C5.67993 0.703125 5.9436 0.723633 6.20728 0.84082L13.5637 4.3125C13.7688 4.41211 13.9446 4.46777 14.0911 4.47949C14.2434 4.48535 14.4104 4.45898 14.592 4.40039L19.9094 2.58105C20.425 2.40527 20.9407 2.32324 21.4563 2.33496C21.9778 2.34668 22.4319 2.45215 22.8186 2.65137C23.2112 2.85059 23.4807 3.14648 23.6272 3.53906C23.7795 3.96094 23.759 4.37695 23.5657 4.78711C23.3723 5.19141 23.0559 5.55176 22.6165 5.86816C22.177 6.18457 21.6643 6.42188 21.0784 6.58008L5.98755 10.6055ZM2.70044 16.6787C2.46606 16.6787 2.26392 16.5908 2.09399 16.415C1.92407 16.2451 1.83911 16.043 1.83911 15.8086C1.83911 15.5684 1.92407 15.3633 2.09399 15.1934C2.26392 15.0293 2.46606 14.9473 2.70044 14.9473H21.7463C21.9866 14.9473 22.1917 15.0293 22.3616 15.1934C22.5315 15.3633 22.6165 15.5684 22.6165 15.8086C22.6165 16.043 22.5315 16.2451 22.3616 16.415C22.1917 16.5908 21.9866 16.6787 21.7463 16.6787H2.70044Z" fill="white"/>
</svg>
