<svg width="21" height="19" viewBox="0 0 21 19" fill="none" xmlns="http://www.w3.org/2000/svg">
<path d="M20.5303 9.6543C20.5303 10 20.3867 10.3135 20.0996 10.5947C19.8184 10.8701 19.4375 11.0928 18.957 11.2627C18.4824 11.4268 17.958 11.5088 17.3838 11.5088H13.7715C13.5254 11.5088 13.3379 11.5352 13.209 11.5879C13.0859 11.6406 12.9512 11.749 12.8047 11.9131L6.83691 18.3643C6.64355 18.5752 6.41797 18.6807 6.16016 18.6807H5.03516C4.92383 18.6807 4.83887 18.6338 4.78027 18.54C4.72754 18.4521 4.73047 18.3467 4.78906 18.2236L7.86523 11.5088L3.36523 11.0078L1.75684 13.8818C1.63379 14.0869 1.43457 14.1895 1.15918 14.1895H0.763672C0.646484 14.1895 0.549805 14.1543 0.473633 14.084C0.40332 14.0137 0.368164 13.9199 0.368164 13.8027V5.50586C0.368164 5.38281 0.40332 5.28613 0.473633 5.21582C0.549805 5.14551 0.646484 5.11035 0.763672 5.11035H1.15918C1.43457 5.11035 1.63379 5.21582 1.75684 5.42676L3.36523 8.30078L7.86523 7.7998L4.78906 1.07617C4.73047 0.953125 4.72754 0.847656 4.78027 0.759766C4.83887 0.671875 4.92383 0.62793 5.03516 0.62793H6.16016C6.41797 0.62793 6.64355 0.733398 6.83691 0.944336L12.8047 7.38672C12.9512 7.55078 13.0859 7.66211 13.209 7.7207C13.3379 7.77344 13.5254 7.7998 13.7715 7.7998H17.3838C17.958 7.7998 18.4824 7.88477 18.957 8.05469C19.4375 8.21875 19.8184 8.44141 20.0996 8.72266C20.3867 8.99805 20.5303 9.30859 20.5303 9.6543Z" fill="white"/>
</svg>
