<svg width="24" height="17" viewBox="0 0 24 17" fill="none" xmlns="http://www.w3.org/2000/svg">
<path d="M2.28857 16.8809C1.63232 16.8809 1.13135 16.7139 0.785645 16.3799C0.445801 16.0518 0.275879 15.5771 0.275879 14.9561V7.40625C0.275879 6.7793 0.445801 6.30176 0.785645 5.97363C1.13135 5.63965 1.63232 5.47266 2.28857 5.47266H4.78467C5.44092 5.47266 5.93896 5.63965 6.27881 5.97363C6.62451 6.30176 6.79736 6.7793 6.79736 7.40625V14.9561C6.79736 15.5771 6.62451 16.0518 6.27881 16.3799C5.93896 16.7139 5.44092 16.8809 4.78467 16.8809H2.28857ZM10.4097 16.8809C9.75342 16.8809 9.25244 16.7139 8.90674 16.3799C8.56689 16.0518 8.39697 15.5771 8.39697 14.9561V4.83984C8.39697 4.21289 8.56689 3.73242 8.90674 3.39844C9.25244 3.06445 9.75342 2.89746 10.4097 2.89746H12.9058C13.562 2.89746 14.0601 3.06445 14.3999 3.39844C14.7456 3.73242 14.9185 4.21289 14.9185 4.83984V14.9561C14.9185 15.5771 14.7456 16.0518 14.3999 16.3799C14.0601 16.7139 13.562 16.8809 12.9058 16.8809H10.4097ZM18.5308 16.8809C17.8804 16.8809 17.3823 16.7139 17.0366 16.3799C16.6968 16.0518 16.5269 15.5771 16.5269 14.9561V2.27344C16.5269 1.65234 16.6968 1.1748 17.0366 0.84082C17.3823 0.506836 17.8804 0.339844 18.5308 0.339844H21.0269C21.689 0.339844 22.1899 0.506836 22.5298 0.84082C22.8755 1.1748 23.0483 1.65234 23.0483 2.27344V14.9561C23.0483 15.5771 22.8755 16.0518 22.5298 16.3799C22.1899 16.7139 21.689 16.8809 21.0269 16.8809H18.5308Z" fill="white"/>
</svg>
