<svg width="64" height="45" viewBox="0 0 64 45" fill="none" xmlns="http://www.w3.org/2000/svg">
<path d="M14.1896 27.8595C13.0873 28.1571 12.092 28.2316 11.2036 28.0827C10.3316 27.9339 9.59131 27.5205 8.9826 26.8424L0.345485 17.0691C0.115162 16.8211 0 16.5317 0 16.2009C0.0164517 15.8702 0.164517 15.5808 0.444195 15.3327L1.18452 14.6382C1.53 14.324 1.86726 14.1338 2.1963 14.0677C2.54178 13.985 2.90372 14.0098 3.2821 14.1421L18.7796 19.6737L11.8699 19.4504L25.5165 14.7374L24.9243 17.7637L10.562 2.38433C10.2494 2.07012 10.1342 1.73112 10.2165 1.3673C10.2987 1.00349 10.5126 0.763706 10.8581 0.647947L12.5855 0.127034C13.3258 -0.0879464 14.0662 -0.0300672 14.8065 0.300671L35.4615 10.0988C36.0373 10.3799 36.5309 10.537 36.9422 10.5701C37.3699 10.5866 37.8388 10.5122 38.3488 10.3469L53.2787 5.21214C54.7264 4.71603 56.1742 4.48452 57.6219 4.51759C59.0861 4.55066 60.3611 4.84833 61.4469 5.41058C62.5492 5.97284 63.306 6.80795 63.7173 7.91593C64.145 9.10659 64.0874 10.2807 63.5445 11.4383C63.0016 12.5793 62.1132 13.5964 60.8793 14.4894C59.6455 15.3824 58.206 16.0521 56.5608 16.4986L14.1896 27.8595ZM4.96017 45C4.30211 45 3.73453 44.7519 3.25743 44.2558C2.78033 43.7763 2.54178 43.2057 2.54178 42.5443C2.54178 41.8663 2.78033 41.2875 3.25743 40.8079C3.73453 40.3449 4.30211 40.1133 4.96017 40.1133H58.4363C59.1108 40.1133 59.6866 40.3449 60.1637 40.8079C60.6408 41.2875 60.8793 41.8663 60.8793 42.5443C60.8793 43.2057 60.6408 43.7763 60.1637 44.2558C59.6866 44.7519 59.1108 45 58.4363 45H4.96017Z" fill="#E33A8B"/>
</svg>
